<?xml version="1.0" encoding="UTF-8"?>
<svg id="Layer_2" data-name="Layer 2" xmlns="http://www.w3.org/2000/svg" xmlns:xlink="http://www.w3.org/1999/xlink" viewBox="0 0 450 490">
  <defs>
    <style>
      .cls-1 {
        fill: url(#linear-gradient);
      }

      .cls-1, .cls-2, .cls-3, .cls-4 {
        stroke-width: 0px;
      }

      .cls-2 {
        fill: #1c2127;
      }

      .cls-3 {
        fill: url(#linear-gradient-2);
      }

      .cls-4 {
        fill: url(#linear-gradient-3);
      }
    </style>
    <linearGradient id="linear-gradient" x1="8.99" y1="262.55" x2="225.36" y2="328.29" gradientUnits="userSpaceOnUse">
      <stop offset="0" stop-color="#b78a18"/>
      <stop offset=".14" stop-color="#b28618"/>
      <stop offset=".31" stop-color="#a47d19"/>
      <stop offset=".48" stop-color="#8d6d1c"/>
      <stop offset=".66" stop-color="#6c571f"/>
      <stop offset=".85" stop-color="#433c23"/>
      <stop offset="1" stop-color="#1c2127"/>
    </linearGradient>
    <linearGradient id="linear-gradient-2" x1="34.93" y1="319.72" x2="484.9" y2="325.12" gradientUnits="userSpaceOnUse">
      <stop offset="0" stop-color="#b78a18"/>
      <stop offset=".43" stop-color="#6e581f"/>
      <stop offset=".82" stop-color="#333024"/>
      <stop offset="1" stop-color="#1c2127"/>
    </linearGradient>
    <linearGradient id="linear-gradient-3" x1="235.37" y1="327.59" x2="450.39" y2="256.87" gradientUnits="userSpaceOnUse">
      <stop offset=".37" stop-color="#b78a18"/>
      <stop offset=".46" stop-color="#b28618"/>
      <stop offset=".56" stop-color="#a47d19"/>
      <stop offset=".67" stop-color="#8d6d1c"/>
      <stop offset=".79" stop-color="#6c571f"/>
      <stop offset=".9" stop-color="#433c23"/>
      <stop offset="1" stop-color="#1c2127"/>
    </linearGradient>
  </defs>
  <g id="logo-light">
    <g>
      <polygon class="cls-1" points="0 490 140.62 98 225 98 84.38 490 0 490"/>
      <path class="cls-3" d="M28.12,406h393.75c15.53,0,28.12-12.54,28.12-28v-112c0-15.46-12.59-28-28.12-28h0c-15.53,0-28.12,12.54-28.12,28v28c0,15.46-12.59,28-28.12,28H84.37c-15.53,0-28.12-12.54-28.12-28v-28c0-15.46-12.59-28-28.12-28h0c-15.53,0-28.12,12.54-28.12,28v112c0,15.46,12.59,28,28.12,28Z"/>
      <polygon class="cls-4" points="450 490 365.62 490 225 98 309.38 98 450 490"/>
      <polygon class="cls-2" points="168.75 294 225 126 281.25 294 168.75 294"/>
      <polygon class="cls-2" points="281.25 0 168.75 0 140.62 84 309.38 84 281.25 0"/>
    </g>
  </g>
</svg>